<svg width="50" height="52" viewBox="0 0 50 52" fill="none" xmlns="http://www.w3.org/2000/svg">
<path d="M41.9092 7.65037C39.6382 5.23409 36.9365 3.31437 33.9592 2.00149C30.982 0.68861 27.7878 0.00844749 24.5603 7.81896e-05C21.3328 -0.00829111 18.1355 0.655297 15.1521 1.95272C12.1687 3.25015 9.45809 5.15583 7.17588 7.56031C4.89367 9.96478 3.08488 12.8206 1.85343 15.9638C0.621977 19.107 -0.00786953 22.4756 7.42138e-05 25.876C0.00801796 29.2765 0.653596 32.6417 1.89972 35.7785C3.14584 38.9153 4.96795 41.7617 7.26137 44.1543C9.53232 46.5706 12.234 48.4903 15.2113 49.8032C18.1886 51.1161 21.3827 51.7962 24.6103 51.8046C27.8378 51.813 31.0351 51.1494 34.0184 49.852C37.0018 48.5545 39.7125 46.6489 41.9947 44.2444C44.2769 41.8399 46.0857 38.984 47.3171 35.8409C48.5486 32.6977 49.1784 29.3291 49.1705 25.9287C49.1625 22.5282 48.517 19.163 47.2708 16.0262C46.0247 12.8894 44.2026 10.043 41.9092 7.65037ZM3.58528 25.9023C3.58449 23.9442 3.83092 21.9946 4.31809 20.1049C5.1209 21.9256 6.28684 23.4986 7.07981 25.3665C8.10465 27.768 10.8565 27.1019 12.0717 29.2061C13.1501 31.0741 11.9984 33.4364 12.8056 35.3907C13.3918 36.8093 14.7743 37.1193 15.7281 38.1564C16.7026 39.2027 16.6818 40.6362 16.8306 42.0006C16.9984 43.6036 17.2707 45.1926 17.6454 46.7563C17.6454 46.7678 17.6454 46.7805 17.6542 46.792C9.46965 43.7637 3.58528 35.544 3.58528 25.9023ZM24.5853 48.0273C23.4125 48.027 22.2418 47.9237 21.0853 47.7185C21.0973 47.4062 21.1028 47.1147 21.1323 46.9119C21.3981 45.0797 22.2687 43.2878 23.4434 41.9165C24.6039 40.5636 26.1942 39.6487 27.1742 38.1137C28.1345 36.6157 28.4222 34.5991 28.0262 32.8487C27.4432 30.2628 24.1084 29.3997 22.3103 27.9973C21.2767 27.1907 20.3568 25.9438 18.9995 25.8424C18.3739 25.7963 17.85 25.9381 17.2298 25.7698C16.6611 25.6143 16.2148 25.2916 15.6089 25.3757C14.4768 25.5324 13.7626 26.8069 12.5464 26.6341C11.3925 26.4716 10.2036 25.0485 9.94106 23.8904C9.60418 22.4015 10.722 21.9187 11.9197 21.7862C12.4195 21.7309 12.9806 21.6709 13.4607 21.8645C14.0929 22.1111 14.3915 22.7634 14.9592 23.0929C16.0234 23.7083 16.2389 22.7253 16.0759 21.7297C15.832 20.2386 15.5476 19.6313 16.8098 18.6046C17.6848 17.897 18.4329 17.3854 18.2929 16.1143C18.2098 15.3676 17.8215 15.03 18.1836 14.2867C18.4581 13.7209 19.2117 13.2104 19.7028 12.8728C20.9704 12.0016 25.1332 12.0662 23.4325 9.6278C22.9326 8.91219 22.0106 7.63309 21.1356 7.45793C20.0418 7.24014 19.5562 8.52615 18.7939 9.09311C18.0064 9.67965 16.4729 10.3457 15.6843 9.43881C14.6234 8.21848 16.3876 7.81861 16.7781 6.96588C16.9586 6.56832 16.7781 6.01635 16.474 5.49664C16.8685 5.32149 17.2695 5.15901 17.6772 5.0092C17.9326 5.20798 18.2356 5.32771 18.5522 5.3549C19.2839 5.40561 19.974 4.98846 20.6128 5.51393C21.3215 6.0901 21.8323 6.81838 22.7729 6.99815C23.6829 7.17215 24.6465 6.61326 24.8718 5.63147C25.0086 5.03455 24.8718 4.40422 24.7406 3.78772C28.8312 3.81251 32.8248 5.10321 36.225 7.49942C36.0062 7.41184 35.7448 7.42221 35.4222 7.58008C34.7582 7.90504 33.8176 8.73242 33.74 9.55289C33.6514 10.484 34.9551 10.6154 35.5742 10.6154C36.5039 10.6154 37.4456 10.1775 37.1459 9.04586C37.0157 8.55496 36.8386 8.04447 36.5531 7.73565C37.2393 8.23733 37.8967 8.78142 38.5218 9.36506C38.512 9.37543 38.5022 9.38465 38.4923 9.39617C37.8623 10.0876 37.1306 10.6349 36.6997 11.4762C36.3956 12.0685 36.0532 12.3496 35.4375 12.5029C35.0984 12.587 34.7112 12.6181 34.4268 12.8578C33.635 13.5146 34.0856 15.0934 34.8359 15.567C35.7842 16.165 37.1908 15.8839 37.9061 15.03C38.465 14.3616 38.7942 13.2012 39.7993 13.2024C40.2419 13.2014 40.667 13.3839 40.9828 13.7105C41.3984 14.1646 41.3164 14.5886 41.405 15.1556C41.5614 16.1627 42.4047 15.6165 42.9176 15.1083C43.2915 15.8095 43.6289 16.5315 43.9282 17.2713C43.3639 18.1275 42.9154 19.0609 41.5581 18.063C40.7454 17.4649 40.2456 16.5972 39.2251 16.3275C38.3337 16.097 37.4204 16.3367 36.54 16.4969C35.5392 16.6801 34.3525 16.7608 33.5934 17.5594C32.8595 18.3291 32.4712 19.3593 31.6903 20.1326C30.1798 21.6306 29.5422 23.2658 30.52 25.3838C31.4606 27.42 33.4282 28.5251 35.5512 28.3799C37.637 28.2335 39.8037 26.959 39.7436 30.1522C39.7217 31.2826 39.9459 32.0651 40.2751 33.1149C40.5803 34.0828 40.5595 35.0208 40.6295 36.0199C40.6961 37.1898 40.8697 38.3503 41.1479 39.485C39.1875 42.1444 36.6761 44.2965 33.8056 45.777C30.935 47.2575 27.7813 48.0272 24.5853 48.0273Z" fill="white"/>
</svg>
