<svg width="36" height="36" viewBox="0 0 36 36" fill="none" xmlns="http://www.w3.org/2000/svg">
<path d="M16.725 25.5393L9.5 33L2.275 25.5393C0.575 23.8115 0.575 21.0236 2.275 19.2958C3.975 17.5681 6.71818 17.5681 8.41818 19.2958C8.92045 19.8063 9.30682 20.4346 9.5 21.1021C9.69318 20.4346 10.0409 19.8063 10.5818 19.2958C12.2818 17.5681 15.025 17.5681 16.725 19.2958C18.425 21.0236 18.425 23.8115 16.725 25.5393Z" fill="black"/>
<path d="M32.45 18.0785L18 33L3.55 18.0785C1.85 16.3508 1 14.1126 1 11.8351C1 9.55759 1.85 7.31937 3.55 5.59162C6.95 2.13613 12.4364 2.13613 15.8364 5.59162C16.8795 6.65183 17.575 7.86911 18 9.20419C18.3864 7.86911 19.1205 6.65183 20.1636 5.59162C23.5636 2.13613 29.0886 2.13613 32.45 5.59162C35.8114 9.04712 35.85 14.623 32.45 18.0785Z" fill="#FFC043"/>
<path d="M33.725 25.5393L26.5 33L19.275 25.5393C17.575 23.8115 17.575 21.0236 19.275 19.2958C20.975 17.5681 23.7182 17.5681 25.4182 19.2958C25.9205 19.8063 26.3068 20.4346 26.5 21.1021C26.6932 20.4346 27.0409 19.8063 27.5818 19.2958C29.2818 17.5681 32.025 17.5681 33.725 19.2958C35.425 21.0236 35.425 23.8115 33.725 25.5393Z" fill="#957FCE"/>
</svg>
